<?xml version="1.0" encoding="UTF-8"?>
<svg id="Layer_1" xmlns="http://www.w3.org/2000/svg" version="1.1" viewBox="0 0 1536 1024">
  <!-- Generator: Adobe Illustrator 29.4.0, SVG Export Plug-In . SVG Version: 2.1.0 Build 152)  -->
  <path d="M1536,0v1024H0V0h1536ZM494.5,321c4.95.25,10.03,0,15,0s10.63,9.02,8.41,14.38c-3.35,8.09-9.9,7.05-17.23,5.72l-4.66,5.4c-.04,2.87,46.59,18.33,52.45,18.54,1.11.04,3.79.63,3.52-1.03-4.37-1.41-7.43-6.04-9.85-9.76l.31-2.23c9.18-9.45,17.76-24.24,29.33-30.74,14.74-8.28,32.31-11.37,49.05-8.62,4.45.73,25.43,9.02,27.18,7.91,6.98-10.1,7.86-22.67,3.07-33.92,7.27-4.55,13.12-11.32,17.09-18.97,1.53-2.94,4.45-11.32,4.69-14.31.36-4.42.07-8.08-.86-12.36h2.99c4.01,15.46-.06,28.67-8.97,41.49,5.72,11.66,9.42,13.99,4.01,27.04-12.24,29.49-54.85,47.16-79.94,65.06-50.38,35.95-68.09,75.53-64.1,137.91.21,3.3,2.41,5.87,1.02,9.51l2-.5-1.93,1.91c4.86,19.84,11.38,41.94,23.08,58.92.71,1.02,1.69,2.86,3.2,2.59l21.69-23.48c-18.9-54.42,11.95-121.56,54.47-156.42,24.92-20.44,58.14-32.91,75.89-61.11,19.47-30.92,21.94-74.52.59-105.21-.67-.96-2.35-.18-2-1.69,2.46-.4,2.1-.14,3.32,1.22,19.58,21.74,23.06,57.16,13.44,84.03-19.44,54.32-57.92,57.71-94.77,92.23-31.38,29.39-57.11,85.48-49.85,128.87.77,4.62,3.13,8.83,2.87,13.65,1.54,1.53,6.52-4.2,7.73-4.99,1.01-.66,9.5-5.86,8.25-2.54-18.07,18.5-33.95,38.62-51.06,58.02-1.82,2.06-1.34,1.42-3.43,3.46-13.69,13.32-22.75,21.33-41.41,8.46-9.24-6.37-13.36-17.46-23.31-20.69-12.14-3.94-29.8-.53-33.78,13.27,3.79-1.18,6.14-4.73,10.58-4.92,3.85-.16,11.71,2.65,13.7,6.2,1.19,2.13,1.79,6.03,3,7.45,1,1.18,14.94,11.73,16.78,12.71,3.95,2.11,8.02,1.74,10.94,4.55-21.58,2.15-27.38-23.74-49.32-10.81-10.3,6.07-12.23,15.6-9.67,26.81,2.08-1.08,1.52-3.9,3.46-6.02,1.77-1.92,9.4-5.85,12.04-6.04,7.74-.56,9.85,5.22,14.04,6.01,5.83,1.11,18.62,1.48,24.95,1.62,2.01.05,4.33-.96,6.5-.57-6.83,6.45-18.66,2.1-27.25,3.25-6.83.92-15.81,7.36-18.03,14.04-.86,2.6.19,3.19.11,4.23-.05.64-1.7.02-1.92,1.9-.91,7.7,3.76,17.29,10.09,21.57-5.43-14.19,10.63-23.68,22.61-24.89,8.42-.85,16.11,3.79,24.55,3.31,7.59-.43,16.48-7.53,22.87.06,8.7,10.33-5.54,18.44-11.02,25.51,8.06-1.63,16.49-.87,23.49-5.99,9.39-6.87,11.65-24.57,4.94-33.93l-7.95-7.07c23.02-14.93,49.59-32.89,75.27-42.74,7.88-3.02,28.27-6.1,32.27-12.73,3.17-5.26,1.36-11.48,1.98-17.02.88-7.88,9.9-14.93,14.17-21.83,12.66-20.44,14.13-43.39,16.84-66.67,2.06.52,1.6,1.47,1.57,2.98-.12,5.7-1.13,11.61-.61,17.38l2.01.66c.38,1.57-1.55.45-2.31,2.22-.8,1.87-.34,8.54-.8,11.14-1.76,9.91-4.82,22.87-9.02,31.98-3.05,6.61-13.07,17.67-14.43,22.65-.95,3.46.5,9.43.1,12.53-.73,5.72-6.67,13.15-11.83,15.66l-29.7,9.78c13.5,5.33,26.92,8.21,41.45,9.05,8.05.47,16.84-1.22,24.53.96-.84-4.79-3.36-8.51-3.92-13.59-.22-1.97.17-1.44,1.91-1.4l7.21,15.81,22.8,5.19c1.13-30.92,31.98-33.67,56.39-30.88,1.42.16,6.1.52,6.62,1.88h-21.5c-2.01,0-11.19,2.48-13.72,3.28-16.25,5.2-19.48,15.07-20.77,31.23-2.28,28.72,4.13,64.01,26.51,83.46,15.44,13.42,38.55,22.69,41.5,45.48-5.36,22.76-6.66,66.35-36.64,70.44-3.53.48-11.33,1.14-14.86,1.16-6.42.04-16.37-3.08-21.82-1.84-1.97.45-14.46,9.04-16.2,10.8-5.53,5.62-9.65,19.49-4,25.98,1.67.38,2.15-2.3,3.76-3.32,3.34-2.11,8.5-1.92,10.69-3.22,1.41-.83,2.94-4.88,4.35-6.15,3.26-2.95,15.9-7.97,20.3-8.24,1.72-.11,5.21.43,4.39,2.92-12.94,2.84-30.06,13.15-23.99,29,4.31-4.01,11.96-2.83,16.25-5.97,2.24-1.64,4.31-6.8,8.69-7.11l-.95-2.92c1.1.33,1.68.84,2.97.55,6.67-1.52,14.17-7.18,21.99-9.08,9.84-2.4,27.05-3.68,36.52-3.45,3.03.07,5.2,1.36,8.92.91,1.9-.23,10.37-1.92,9.6-3.92l3.98,1.98c-.79-5.98-5.05-17.65-11.7-18.8-1.8-.31-4.91.93-7.04.59-.89-.14-1.55,1.08-1.23-1.25,7.15-14.58,9.75-33.2,17.69-47.28,3.75-6.66,12.33-14.17,16.11-20.93,4.32-7.73-.42-9.7-2.32-17.31-3.96-15.82-.83-26.79-13.5-40.5-2.08-2.25-16.27-11.59-13.98-14.51l16.88,8.92c5.55-7.44,7.75-15.93,11.1-24.43l-2.98-.98,2.96-.52c-.78-1.86,1.03-4.59,1.03-5.49v-15c0-.58-1.8-1.75.99-2.5,3.15,18.23,5.78,38.9-8.03,53.5,5.54,7.2,8.97,15.35,10.79,24.25.89,4.37.46,9.62,1.71,14.29,1.56,5.83,6.05,9.71,6.2,15.89.22,9.06-9.65,16-14.63,22.6-9.5,12.59-13.62,27.96-18.06,42.9,13.02,5.46,18.06,21.43,16.03,34.56l-5.98-2c2.07,4.12,2.42,7.33,1.98,11.99-.7.81-9.24-6.08-10.77-6.72-11.17-4.72-42.44-1.29-54.44,2.02-7.48,2.07-24.92,8.31-23.8,17.7-10.16-4.76-17.53,3.35-21.55,11.99-3.56-.53-5.3-3.42-7.13-6.05-62.14,14.89-145.52-1.1-184.73-55.02-17.07-23.48-26.02-56.9-7.42-82.24,17.82-24.28,62.17-22.96,63.57,10.09.52,12.24-11.82,26.07-24.4,24.94-3.92-.35-6.8-2.61-10.34-3.69,3.15,24.29,26.77,22.85,41.89,9.33,41.15-36.8-10.79-104.31-65.57-80.51-53.36,23.19-54.92,92.08-26.69,136.04,56.43,87.89,204.78,108.96,292.29,59.55,51.42-29.03,76.24-76.31,87.1-133.04l-1.94-1.44-.08-1.94,2.7-.49c4.08-33.43,4.98-66.31-.98-99.74-7.87-44.1-28.58-84.12-60.73-115.27l1.48-.48c14.18,10.5,25.87,22.68,35.74,37.27,37.82,55.89,44.41,139.12,25.49,202.93-7.15,24.11-17.15,47.17-30.56,68.43l1.8,4.76c.26,1.23,1.34.65,2.07.13,2-1.41,7.18-9.95,8.45-12.55,5.82-11.84,7.7-25.43,11.58-37.94,5.85-.15,9.6,4.91,13.92,7.95,5.84-20.57-2.7-42.23,1.02-63l17.98,7.99-14.98-66,21.51,9.99,1.5-1.49-32.03-62.98,6.39-.39,19.61,4.38-49.98-61.02c-.27-2.05.09-1.29,1.47-1.47,5.06-.66,10.48-.6,15.51-1.5-13.05-11.48-25.91-23.63-39.52-34.48-7.11-5.66-17.66-14.34-25.15-18.85-10.4-6.26-20.79-9.94-30.79-18.21-2.57-2.12-4.78-4.66-6.49-7.53l-18.08,7.01-25.96,16.53c9.59-13.18,24.14-23.93,39.03-30.46,4.61-2.02,12.82-3.7,16.32-5.71,1.45-.83,1.5-2.48,1.78-2.68.2-.14,2.63,1.06,4.22.82,9.88-1.46,18.63-4.05,29.12-4.02,34.38.11,57.16,19.26,62.53,53.05,2.53.52,2.47-2.28,4.44-4.05,5.13-4.6,21.57-15.55,28.07-16.02,8.12-.58,28.57,10.9,34,17.05,3.42,3.88,8.03,10.96,8.5,16.02l1.99-1.02c-.85,3.13-1.19,8.56,3,9.02l-2.07,1.61c3.11,13.37.8,26.84.08,40.37,12.04-5.34,23.07-17.04,36.49-6.99,10.11,7.58,11.02,20.41,10.38,32.43-1.56,29.06-16.86,66.14-32.03,90.9-.86,1.4-6.99,7.41-5.83,8.66,34.85-25.75,56.08-67.21,70.01-107.48,23.72-68.59,31.61-151.85,24.97-224.01-1.35-14.71-4.58-29.25-5.92-43.96l-3.06-.56,2.08-1.59c-4.87-22.22-10.37-44.33-18.33-65.65-4.7-12.59-10.94-26.55-16.47-37.41-36-70.72-86.08-116.72-170.76-110.33-5.47.41-40.45,8.37-43,11-4.69,4.81-2.06,27.17,1.99,31.99,3.53,4.2,9.71-2.91,10.5-2,.07,14.59,6.37,28.11,9.28,42.19,14.92,72.29-9.89,163.46-85.3,190.3-8.56,3.05-19.51,1.5-21.98,13.51-2.72.87-3.4-3.35-4.18-3.79-2.67-1.5-8.81,2.07-9.85-5.66-1.18-8.74,4.62-14.41,9.13-21.04.57-.84-.02-2.24.12-2.36,40.67-31.95,58.97-77.1,51.69-129.54-3.88-27.91-20.28-54.38-45.56-67.42-19.24,9.27-38.63,25.7-61.55,19.53-2.57-.69-6.63-2.15-7.77-4.71,30.9,4.09,56.62-16.65,80.91-32.6,16.22-10.64,39.95-24.59,52.6-38.4,4.47-4.87,8.14-10.53,12.48-15.52l-1.99-1.48c1.57,0,2.92-.23,4.06-1.45.85-.91,9.62-18.74,8.93-19.56-12.31,6.59-23.13,16.41-34.97,23.52-19.13,11.48-42.77,21.6-63.9,28.6-1.16,2.27,1.49,14.52-.64,14.88-3.81.64-4.59-10.76-4.49-13l-22.88,5.11,2.88,12.89c-6.4-1.82-5.94-7.78-9.64-11.89l-14.35,2.89c-.98,1.9,2.23,12.02-.49,11.98l-11.99-7.94-14.51,3.97,2,6.99c-5.29-.19-7.08-5.21-13-2.99l1,3.98c-8.08-1.94-17.21,2.41-24.68,5.83-11.09,5.09-18.86,11.14-25.84,21.17-2.57.39-1.37-1.67-1.05-3.06,1.4-5.99,7.8-13.73,12.63-17.37,14.22-10.71,68.57-26.47,87.72-31.28,11.57-2.9,24.03-4.21,35.42-7.58,23.15-6.84,47.61-37.63,47.83-62.19,0-1.12.55-2.79-1.03-2.52-.5,2.34-1.64,4.62-2.84,6.66-5.31,9-17.76,21.33-26.28,27.72-11.52,8.65-25.53,15.79-39.41,19.59-1.42-3.55,1.21-7.25,2.03-10.97,2.33-10.55,3.26-21.7,2.48-32.53-.11-1.49.77-2.89-1.49-2.48l-6.91,15.73c-9.31,15.8-21.36,29.43-36.69,39.67-3.02,2.01-6.4,3.56-9.42,5.58-.12-11.66,2.16-20.59-2.02-31.97-2.36-6.41-6.92-15.31-14.47-16.02,8.7,22.55-3.1,42.07-14.02,60.99-1.48,1.01-9.37-20-10.47-22.02-5.19-9.48-11.13-15.37-22.51-15.98-.65.98,7.36,11.75,8.38,14.11,7.35,16.96,2.76,37.69-6.98,52.8-4.62,7.17-15.54,12.37-15.49,21.59.02,3.01,1.27,5.29,1,8.86-.2,2.61-2.49,11.55-5.89,10.14-.33-.97,4-10.97.49-9.5-10.85,11.49-26.17,17.58-38.43,26.58-2.76,2.03-9.25,9.43-11.6,10.4s-1.42-4.91-4.95-5c-6.71-.17-12.55,18.35-13.28,23.76-1.92,14.24,1.35,30.53,11.38,41.06l3.41-1.46c1.24-4.8-5.24-4.56-6.03-7.88-.73-3.09,2.2-.49,2.48-.48ZM781,207.01c-13.07-5.44-28.52-9.09-42.62-10.89-7.08-.9-10.87-1.25-17.38,1.89,3.14,3.69,9,5.52,12.67,8.33,17.91,13.75,31.87,37.93,35.23,60.25.72,4.79.09,15.12,1.09,18.75.25.93,1.93.59,1.99.68.38.57-1.47,1.42-1.54,2.42-.22,2.94.75,7.41.55,11.12-1.79,34.26-14.51,65.82-38.84,90.08l11.35,15.35,12.46-44.58,22.03,6.58-5.54-54.01c1.11-1.43,2.31-1.01,3.8-.79,6.86,1.01,15.65,5.38,22.74,6.8-3.79-19.03-16.38-34.57-25.16-51.33-1.33-2.55-2.34-4.19-2.86-7.16-.61-3.52,1.38.42,2.46.57,6.67.91,16.59.4,23.1-1.06,1.38-.31,2.9.87,2.46-1.51l-41.98-37.04c-.58-2.59,12.39-5.76,14.98-6.98,1.46-.68,10.9-5.39,9-7.49ZM467.65,395.34c-5.64-5.89-21.91-10.15-29.64-6.85-1.79.77-7.35,4.45-8,6.02-1.39,3.35,3.71-.33,4.52-.49,4.44-.87,9.63.96,12.86,4.09,6.06,5.88,2,10.18,3.05,11.88.82,1.33,6.31,4.49,8.39,7.68,2.29,3.5,3.81,8.15,4.16,12.33-2.84-2.59-4.48-6.47-7.02-9.47-13.74-16.22-42.29-18.38-49.97,4.46,9.34-1.9,16.45-5.47,22.84,3.67,1.53,2.19,2.55,6.19,3.4,7.15s6.17.88,7.97,1.45c4.34,1.37,8.27,4.47,11.9,7.16.51.38,3.65,1.07,1.89,2.57-.91.77-8.14-3.95-9.98-4.51-12-3.7-30.88,2.76-34.34,15.69-1.31,4.88-.46,9.88-.67,14.82,3.19-.41,4.47-3.57,7.3-5.19,11.06-6.36,24.8-1.31,32.67,7.73,8.32,9.55,11.8,20.79,2.56,31.5-4.3,4.98-22.51,7.04-15.54,17.48,6.91,10.33,25.46,10.25,30.87-1.14,1.1-2.32,2.23-13.07,5.57-12.32,3.82.85,31.29,41.83,36.59,48.43,3.89,4.84,8.62,10.65,12.93,15.04,1.25,1.27,6.74,7.42,8.04,6.48.88-4.34,2.72-10.06,8.01-10.01.18-1.93-1.6-3.1-2.53-4.96-6.48-13-12.51-31.25-14.34-45.66-.57-4.51.57-9.2-1.12-13.63-19.07-9.9-35.84-35.87-40.71-56.54-3.26-13.84,3.29-25.94-2.4-39.59-1.32-3.17-7-12.92-9.24-15.26ZM708.86,642.14c-16.55-7.74-34.13-6.48-51.09-.86-34.43,11.4-34.35,52.51-14.19,77.64,8.6,10.72,32.04,23.24,36.47,32.53.76,1.59,2.57,7.09,2.44,8.67-1.09,12.85-4.9,30.16-17.82,36.06-11.96,5.45-21.71-3.26-32.41-4.93-14.18-2.22-30.69,3.18-33.26,18.75,9.52-4.45,22.45-13.51,31.99-4.49-14.2-.93-27.88,9.18-28.07,24-.06,4.31,2.14,8.2,2.09,12.49l5.56-8.93c1.22-1.54,5.16-5.4,6.91-5.61,1.56-.19,3.48,1.35,5.55.08,1.01-.62,1.8-3.66,2.98-5.04,6.29-7.35,15.42-12.04,25.37-11.39.91.06,4.75.45,4.62,1.88-5.92,2.23-22.99,8.56-26.02,13.48-3.76,6.11-2.84,15-.96,21.53,2.87-3.63,5.15-5.14,9.11-7.37,5.1-2.87,14.7-8.04,19.87-10.13,4.4-1.77,11.39-2.18,14.28-3.54.85-.4.85-1.17.74-1.95l1.54,2.05c4.13-1.17,9.7-1.57,13.95-1.5,5.5.1,16.28,2.77,19.96,2.41s10.04-6.03,14.53-2.97c-.59-15.31-16.36-23.07-29.98-17l12.47-27.02c7.61-16.44,21.26-30.91,14.01-49.96-6.21-16.31-21.27-16.32-29.48-30.01,7.13.61,11.91,9.87,20,9.98l-1-2.98,17.99,5.99-8.38-14.11c-7.56-18.35-10.77-37.88-9.75-57.75Z"/>
  <g>
    <path d="M609,291.01c-.4,1.88-1.97,1.81-3.47,2.02-5.13.7-17.59.37-20.99,4.01-1.27,1.37-1.58,4.51-3.54,5.46-2.45,1.19-8.76,1.12-12.03,1.97-10.06,2.63-19.36,7.26-27.9,13.1-8.94,6.11-11.48,15.6-21.92,2.78,4.64-11.31,15.2-19.73,26.19-24.51,19.21-8.35,43.18-1.14,63.66-4.83Z"/>
    <path d="M622.99,226.01l-16.64,8.34c-5.92,9.92-15.18,13.89-23.87,20.64-4.34,1.89,3.05-8.28,2.51-8.98-3.81-.26-6.13-3.53-7.01-7.01-.71-.48-7.51,7.55-9.06,8.43-2.39,1.35-5.29,1.25-7.63,2.37-3.6,1.74-6.15,5-10.29,5.2.36-2.37,4.82-5.7,6.66-6.83,1.28-.79,4.87-2.8,6.08-2.99,1.34-.2,3.13.95,3.25.84.19-.18.35-3.13,1.55-4.98s7-7.46,8.94-9.06c13.08-10.76,29.89-10.75,45.52-5.97ZM604,228.01c-1.98-1.69-17.11,2.98-19.08,5.48-1.32,1.67,3.54,7.85,4.06,10.06,1.43,1.18,8.83-6.6,10.05-8.02.76-.88,5.81-6.8,4.97-7.52Z"/>
    <path d="M513.75,278.23c.54.41,1.64,2.65.26,3.28-8.93-1.64-11.26,5.66-15.41,11.61-.84,1.2-.04,2.45-2.59,1.87,1.29-4.91,1.93-10.85,5.95-14.54,2.67-2.45,8.71-4.57,11.8-2.22Z"/>
    <path d="M607,248.01l-.99,2.99,2.99.99-2.99,2.01,5.5-1.99c1.76,1.73-1.09,2.8-2.74,3.33-1.56.51-8.61.48-6.1-1.31,3.26-2.34-.5-2.66-.65-6.02h4.99Z"/>
    <polygon points="525.99 288 523.5 286 522.5 288 519.01 283.02 525.04 281.44 525.99 288"/>
    <g>
      <path d="M1019.99,633.99l.21-10.51c25.01-99.43,28.88-219.42-5.18-318-.93-2.68-4.91-14.69-5.91-15.86-.84-.98-2.03-.6-3.1-.63l1.91-2.36c-.64-1.31-1.33-2.6-1.95-3.91-14.66-31.03-31.33-62.83-58.95-86.24-34.18-28.98-79.34-37.44-122.53-26.5l-.48-1.97c9.89-1.66,19.66-4.59,29.62-5.89,106.26-13.81,161.69,98.72,180.06,185.68,14.62,69.19,14.76,135.55,5.17,205.55-3.76,27.45-8.98,54.71-18.87,80.64Z"/>
      <path d="M803.66,398.66c-12.96,13.57-38.33,29.33-55.66,36.65-9.12,3.86-22.51,6.09-31.02,10.18-3.62,1.74-6.67,6.78-10.98,5.02,8.86-13.3,26.32-14.86,40.22-20.78,53.12-22.66,84.09-65.12,91.68-122.32,3.07-23.17,1.16-45.83,2.1-68.91.05-1.21-.76-3.72.99-3.48,5.72,39.51,4.04,81.9-9.97,119.51-5.64,15.15-16.19,32.46-27.35,44.14Z"/>
      <path d="M971.01,359l3.98-1-3.98,2.49c10.15,28.91,14.6,59.53,16.35,90.06,1.99,34.75-.35,74.22-7.66,108.66-1.85,8.7-5.19,17.02-6.72,25.79-2.08-.54-1.49-1.33-1.37-2.78.78-9.58,4.02-21.07,5.26-30.84,4.43-35.06,6.62-70.62,4.13-105.89-.23-3.27.62-8.08-.02-10.83-.18-.78-1.9-.62-1.88-1.09.86-21.18-4.18-47-9.38-67.8-2.17-8.67-9.41-25.67-9.77-33.25-.1-2.2.24-2.72,1.26-.26,3.65,8.76,7.11,17.63,9.78,26.75Z"/>
      <path d="M884.99,533c-4.08.77-.29-4.14.3-6.21,13.23-46.49,17.84-105.14,13.7-153.28-1.15-13.39-4.48-26.26-6.54-39.47-.16-1.05-1.34-3.27.53-3.03,22.03,65.28,15.01,138-8,201.99Z"/>
      <path d="M993.99,356l-2.89-.89c-.35,3.19-4.53,3.24-7.61,3.9-1.33.29-1.7,2.11-3.49-.51,5.34-.79,10.57-11.53,13.99-2.5Z"/>
    </g>
  </g>
</svg>